<svg xmlns="http://www.w3.org/2000/svg" aria-hidden="true" style="position:absolute;width:0;height:0;overflow:hidden"><defs><symbol id="icon-smartphone" viewBox="0 0 20 32"><path fill="#757575" d="M17 0H3C1.346 0 0 1.346 0 3v26c0 1.654 1.346 3 3 3h14c1.654 0 3-1.346 3-3V3c0-1.654-1.346-3-3-3zM3 2h14a1 1 0 0 1 1 1v21H2V3a1 1 0 0 1 1-1zm14 28H3a1 1 0 0 1-1-1v-3h16v3a1 1 0 0 1-1 1z" style="fill:var(--color1, #757575)"/><path fill="#757575" d="M4.707 27.478c.391.365.391.956 0 1.321s-1.024.365-1.414 0c-.391-.365-.391-.956 0-1.321s1.024-.365 1.414 0z" style="fill:var(--color1, #757575)"/></symbol><symbol id="icon-office" viewBox="0 0 32 32"><path d="M0 32h16V0H0v32zM10 4h4v4h-4V4zm0 8h4v4h-4v-4zm0 8h4v4h-4v-4zM2 4h4v4H2V4zm0 8h4v4H2v-4zm0 8h4v4H2v-4zm16-10h14v2H18zm0 22h4v-8h6v8h4V14H18z"/></symbol><symbol id="icon-pencil" viewBox="0 0 32 32"><path d="M27 0a5 5 0 0 1 4 8l-2 2-7-7 2-2c.836-.628 1.874-1 3-1zM2 23l-2 9 9-2 18.5-18.5-7-7L2 23zm20.362-11.638-14 14-1.724-1.724 14-14 1.724 1.724z"/></symbol><symbol id="icon-pacman" viewBox="0 0 32 32"><path d="M30.148 5.588A15.964 15.964 0 0 0 18 0C9.163 0 2 7.163 2 16s7.163 16 16 16c4.86 0 9.213-2.167 12.148-5.588L20 16 30.148 5.588zM22 3.769a2.231 2.231 0 1 1 0 4.462 2.231 2.231 0 0 1 0-4.462z"/></symbol></defs></svg>